<svg xmlns="http://www.w3.org/2000/svg" xmlns:xlink="http://www.w3.org/1999/xlink" width="1366" zoomAndPan="magnify" viewBox="0 0 1024.5 576" height="768" preserveAspectRatio="xMidYMid meet" version="1.0"><defs><clipPath id="187af14352"><path d="M 197.964844 0.140625 L 826.464844 0.140625 L 826.464844 575.859375 L 197.964844 575.859375 Z M 197.964844 0.140625 " clip-rule="nonzero"/></clipPath></defs><g clip-path="url(#187af14352)"><path fill="#3ef967" d="M 734.808594 418.953125 C 726.953125 418.953125 721.714844 424.191406 721.714844 432.046875 L 721.714844 510.589844 C 721.714844 531.535156 703.382812 549.863281 682.433594 549.863281 L 263.433594 549.863281 C 242.484375 549.863281 224.152344 531.535156 224.152344 510.589844 L 224.152344 130.953125 L 721.714844 130.953125 L 721.714844 222.589844 C 721.714844 230.445312 726.953125 235.679688 734.808594 235.679688 C 742.664062 235.679688 747.902344 230.445312 747.902344 222.589844 L 747.902344 65.5 C 747.902344 28.84375 719.09375 0.046875 682.433594 0.046875 L 263.433594 0.046875 C 226.773438 0.046875 197.964844 28.84375 197.964844 65.5 L 197.964844 510.589844 C 197.964844 547.246094 226.773438 576.046875 263.433594 576.046875 L 682.433594 576.046875 C 719.09375 576.046875 747.902344 547.246094 747.902344 510.589844 L 747.902344 432.046875 C 747.902344 424.191406 742.664062 418.953125 734.808594 418.953125 Z M 368.183594 52.410156 C 376.039062 52.410156 381.277344 57.644531 381.277344 65.5 C 381.277344 73.355469 376.039062 78.589844 368.183594 78.589844 C 360.328125 78.589844 355.089844 73.355469 355.089844 65.5 C 355.089844 57.644531 360.328125 52.410156 368.183594 52.410156 Z M 315.808594 52.410156 C 323.664062 52.410156 328.902344 57.644531 328.902344 65.5 C 328.902344 73.355469 323.664062 78.589844 315.808594 78.589844 C 307.953125 78.589844 302.714844 73.355469 302.714844 65.5 C 302.714844 57.644531 307.953125 52.410156 315.808594 52.410156 Z M 263.433594 52.410156 C 271.289062 52.410156 276.527344 57.644531 276.527344 65.5 C 276.527344 73.355469 271.289062 78.589844 263.433594 78.589844 C 255.578125 78.589844 250.339844 73.355469 250.339844 65.5 C 250.339844 57.644531 255.578125 52.410156 263.433594 52.410156 Z M 787.183594 261.863281 L 760.996094 261.863281 C 753.140625 261.863281 747.902344 267.101562 747.902344 274.953125 L 747.902344 379.679688 C 747.902344 387.535156 753.140625 392.773438 760.996094 392.773438 C 768.851562 392.773438 774.089844 387.535156 774.089844 379.679688 L 774.089844 340.410156 L 787.183594 340.410156 C 808.132812 340.410156 826.464844 322.082031 826.464844 301.136719 C 826.464844 280.191406 808.132812 261.863281 787.183594 261.863281 Z M 787.183594 314.226562 L 774.089844 314.226562 L 774.089844 288.046875 L 787.183594 288.046875 C 795.039062 288.046875 800.277344 293.28125 800.277344 301.136719 C 800.277344 308.992188 795.039062 314.226562 787.183594 314.226562 Z M 656.246094 261.863281 C 648.390625 261.863281 643.152344 267.101562 643.152344 274.953125 L 643.152344 379.679688 C 643.152344 387.535156 648.390625 392.773438 656.246094 392.773438 C 664.101562 392.773438 669.339844 387.535156 669.339844 379.679688 L 669.339844 340.410156 L 682.433594 340.410156 C 703.382812 340.410156 721.714844 322.082031 721.714844 301.136719 C 721.714844 280.191406 703.382812 261.863281 682.433594 261.863281 Z M 695.527344 301.136719 C 695.527344 308.992188 690.289062 314.226562 682.433594 314.226562 L 669.339844 314.226562 L 669.339844 288.046875 L 682.433594 288.046875 C 690.289062 288.046875 695.527344 293.28125 695.527344 301.136719 Z M 551.496094 269.71875 L 512.214844 374.445312 C 509.597656 382.300781 512.214844 387.535156 520.070312 390.15625 C 527.925781 392.773438 533.164062 390.15625 535.785156 382.300781 L 543.640625 363.972656 L 585.539062 363.972656 L 593.394531 382.300781 C 596.015625 387.539062 601.25 390.15625 606.488281 390.15625 C 609.109375 390.15625 609.109375 390.15625 611.726562 390.15625 C 619.582031 387.535156 622.203125 379.683594 619.582031 374.445312 L 580.300781 269.71875 C 572.445312 259.246094 556.734375 259.246094 551.496094 269.71875 Z M 554.117188 340.410156 L 564.589844 311.609375 L 575.066406 340.410156 Z M 554.117188 340.410156 " fill-opacity="1" fill-rule="nonzero"/></g></svg>