<svg xmlns="http://www.w3.org/2000/svg" xmlns:xlink="http://www.w3.org/1999/xlink" width="1366" zoomAndPan="magnify" viewBox="0 0 1024.5 1063.500012" height="768" preserveAspectRatio="xMidYMid meet" version="1.0"><defs><clipPath id="01aecc6119"><path d="M 7.550781 251 L 1024 251 L 1024 1062.992188 L 7.550781 1062.992188 Z M 7.550781 251 " clip-rule="nonzero"/></clipPath><clipPath id="0af2da5f2c"><path d="M 330 0.0078125 L 701 0.0078125 L 701 491 L 330 491 Z M 330 0.0078125 " clip-rule="nonzero"/></clipPath></defs><g clip-path="url(#01aecc6119)"><path fill="#011e11" d="M 970.667969 1063.503906 L 61.230469 1063.503906 C 31.351562 1063.503906 7.074219 1039.222656 7.074219 1009.957031 L 7.074219 305.738281 C 7.074219 275.847656 31.351562 251.566406 61.230469 251.566406 L 473.933594 251.566406 C 486.382812 259.660156 500.699219 264.019531 515.636719 264.019531 C 531.199219 264.019531 545.515625 259.660156 557.96875 251.566406 L 970.667969 251.566406 C 1000.546875 251.566406 1024.824219 275.847656 1024.824219 305.738281 L 1024.824219 1009.957031 C 1024.824219 1039.222656 1000.546875 1063.503906 970.667969 1063.503906 Z M 970.667969 1063.503906 " fill-opacity="1" fill-rule="evenodd"/></g><path fill="#e6e6e6" d="M 922.738281 889.160156 C 920.871094 889.160156 919.003906 889.160156 917.136719 888.539062 L 663.789062 797.007812 C 659.429688 795.140625 656.316406 792.027344 654.449219 787.667969 C 652.582031 783.933594 652.582031 778.953125 654.449219 774.59375 L 745.953125 561.023438 C 749.066406 552.308594 759.027344 548.570312 767.117188 551.683594 L 928.964844 616.441406 C 935.1875 618.929688 939.546875 625.15625 939.546875 631.382812 L 939.546875 872.972656 C 939.546875 877.953125 937.054688 882.933594 932.699219 886.046875 C 929.585938 888.539062 926.472656 889.160156 922.738281 889.160156 Z M 922.738281 889.160156 " fill-opacity="1" fill-rule="evenodd"/><path fill="#3ef967" d="M 922.738281 577.835938 C 920.25 577.835938 918.382812 577.214844 915.890625 575.96875 L 770.230469 507.476562 C 762.761719 503.738281 759.027344 494.398438 762.140625 486.304688 L 816.292969 353.058594 C 818.785156 346.832031 825.007812 343.097656 831.234375 343.097656 L 922.738281 343.097656 C 932.074219 343.097656 939.546875 350.566406 939.546875 359.285156 L 939.546875 561.023438 C 939.546875 566.628906 936.433594 572.230469 932.074219 575.34375 C 928.964844 576.589844 925.851562 577.835938 922.738281 577.835938 Z M 922.738281 577.835938 " fill-opacity="1" fill-rule="evenodd"/><path fill="#3ef967" d="M 706.738281 481.949219 C 705.492188 481.949219 704.25 481.949219 702.382812 481.324219 L 548.628906 440.230469 C 539.914062 437.738281 534.933594 428.398438 537.425781 419.683594 C 539.914062 410.34375 548.628906 405.359375 557.34375 407.851562 L 594.691406 343.097656 C 594.691406 333.757812 602.164062 326.285156 611.5 326.285156 L 759.027344 326.285156 C 764.628906 326.285156 769.609375 328.773438 772.722656 333.757812 C 775.832031 338.113281 776.457031 344.339844 773.964844 349.324219 L 722.300781 471.984375 C 719.8125 478.210938 713.585938 481.949219 706.738281 481.949219 Z M 706.738281 481.949219 " fill-opacity="1" fill-rule="evenodd"/><path fill="#e6e6e6" d="M 592.824219 768.988281 C 590.335938 768.988281 588.46875 768.367188 585.976562 767.121094 L 365.621094 671.855469 C 357.527344 668.121094 353.792969 658.78125 356.90625 650.6875 L 442.1875 440.851562 C 444.054688 436.492188 447.164062 433.378906 451.523438 431.511719 C 455.257812 429.644531 460.238281 429.644531 463.972656 431.511719 L 690.554688 526.777344 C 694.910156 528.644531 698.023438 531.757812 699.269531 536.117188 C 701.136719 540.476562 701.136719 544.835938 699.269531 549.195312 L 607.765625 759.027344 C 605.273438 765.253906 599.050781 768.988281 592.824219 768.988281 Z M 592.824219 768.988281 " fill-opacity="1" fill-rule="evenodd"/><path fill="#3ef967" d="M 922.738281 972.597656 L 108.539062 972.597656 C 99.824219 972.597656 92.355469 965.125 92.355469 955.785156 L 92.355469 641.96875 C 92.355469 636.363281 94.84375 631.382812 99.203125 628.269531 C 104.179688 625.15625 109.785156 624.535156 114.761719 626.402344 L 928.964844 940.21875 C 936.433594 943.332031 940.789062 950.804688 939.546875 958.898438 C 937.679688 966.992188 930.832031 972.597656 922.738281 972.597656 Z M 922.738281 972.597656 " fill-opacity="1" fill-rule="evenodd"/><path fill="#e6e6e6" d="M 302.128906 656.914062 C 299.640625 656.914062 297.773438 656.289062 295.902344 655.667969 L 102.3125 578.457031 C 96.089844 575.96875 92.355469 569.742188 92.355469 562.890625 L 92.355469 359.285156 C 92.355469 354.304688 94.222656 349.324219 98.578125 346.210938 C 102.9375 343.097656 107.917969 342.472656 112.894531 343.71875 L 391.144531 415.945312 C 395.5 417.191406 399.859375 420.925781 401.726562 425.285156 C 404.214844 429.644531 404.214844 434.625 402.347656 438.984375 L 317.066406 646.328125 C 314.578125 652.554688 308.355469 656.914062 302.128906 656.914062 Z M 302.128906 656.914062 " fill-opacity="1" fill-rule="evenodd"/><path fill="#3ef967" d="M 462.105469 413.457031 C 460.238281 413.457031 458.992188 413.457031 457.75 412.832031 L 260.421875 358.664062 C 252.332031 356.792969 246.726562 348.699219 247.972656 340.605469 C 249.21875 332.511719 256.066406 326.285156 264.78125 326.285156 L 420.398438 326.285156 L 437.207031 343.097656 L 466.460938 381.078125 C 475.175781 383.566406 480.15625 392.285156 477.667969 401.003906 C 475.800781 408.472656 468.953125 413.457031 462.105469 413.457031 Z M 462.105469 413.457031 " fill-opacity="1" fill-rule="evenodd"/><g clip-path="url(#0af2da5f2c)"><path fill="#ff3131" d="M 515.636719 490.664062 C 510.035156 490.664062 505.054688 487.550781 501.945312 483.191406 C 490.738281 465.757812 474.554688 443.964844 457.125 420.925781 C 401.101562 344.964844 330.761719 250.320312 330.761719 184.941406 C 330.761719 82.828125 414.175781 0.015625 515.636719 0.015625 C 617.726562 0.015625 700.515625 82.828125 700.515625 184.941406 C 700.515625 252.8125 627.683594 350.566406 568.550781 429.023438 C 554.230469 448.945312 539.914062 467.625 529.332031 483.191406 C 526.21875 487.550781 521.242188 490.664062 515.636719 490.664062 Z M 515.636719 264.019531 C 472.6875 264.019531 436.582031 227.90625 436.582031 184.941406 C 436.582031 140.109375 472.066406 103.996094 515.636719 103.996094 C 559.210938 103.996094 594.691406 140.109375 594.691406 184.941406 C 594.691406 227.90625 558.589844 264.019531 515.636719 264.019531 Z M 515.636719 264.019531 " fill-opacity="1" fill-rule="evenodd"/></g><path fill="#cf2828" d="M 515.636719 299.511719 C 454.011719 299.511719 401.726562 247.207031 401.726562 185.566406 C 401.726562 120.808594 452.769531 68.507812 515.636719 68.507812 C 578.507812 68.507812 630.175781 120.808594 630.175781 185.566406 C 630.175781 247.207031 577.886719 299.511719 515.636719 299.511719 Z M 515.636719 264.019531 C 472.6875 264.019531 436.582031 227.90625 436.582031 184.941406 C 436.582031 140.109375 472.066406 103.996094 515.636719 103.996094 C 559.210938 103.996094 594.691406 140.109375 594.691406 184.941406 C 594.691406 227.90625 558.589844 264.019531 515.636719 264.019531 Z M 515.636719 264.019531 " fill-opacity="1" fill-rule="evenodd"/></svg>