<svg xmlns="http://www.w3.org/2000/svg" xmlns:xlink="http://www.w3.org/1999/xlink" width="1366" zoomAndPan="magnify" viewBox="0 0 1024.5 576" height="768" preserveAspectRatio="xMidYMid meet" version="1.0"><defs><clipPath id="02c3f5fca3"><path d="M 338 401 L 660 401 L 660 573.644531 L 338 573.644531 Z M 338 401 " clip-rule="nonzero"/></clipPath><clipPath id="5f42e72b28"><path d="M 677 398 L 800.25 398 L 800.25 554 L 677 554 Z M 677 398 " clip-rule="nonzero"/></clipPath><clipPath id="b209b69cb5"><path d="M 224.25 18 L 348 18 L 348 174 L 224.25 174 Z M 224.25 18 " clip-rule="nonzero"/></clipPath></defs><path fill="#3ef967" d="M 632.933594 178.003906 C 608.847656 153.253906 580.773438 137.402344 551.726562 129.527344 C 540.785156 135.152344 523.296875 142.820312 494.863281 152.894531 C 495.683594 152.894531 496.652344 153.046875 497.625 153.152344 C 480.902344 164.554688 464.128906 175.957031 447.460938 187.464844 C 433.296875 196.921875 429.5625 184.804688 432.785156 181.222656 C 414.9375 188.640625 411.921875 204.746094 361.652344 282.371094 C 358.023438 288.046875 354.085938 293.777344 348.664062 297.152344 C 349.996094 255.882812 363.339844 218.042969 384.5625 188.433594 C 385.175781 188.078125 385.789062 187.566406 386.503906 187.105469 C 383.027344 187.566406 379.398438 187.820312 375.816406 187.820312 C 372.699219 187.820312 369.425781 187.71875 366.203125 187.207031 C 341.25 216.046875 325.039062 253.480469 323.503906 297.152344 C 323.351562 299.402344 323.351562 301.703125 323.351562 304.105469 C 323.351562 369.046875 357.460938 425.65625 408.441406 457.359375 L 443.984375 470.757812 C 444.339844 470.296875 444.800781 469.839844 445.261719 469.222656 C 413.8125 454.445312 387.578125 427.957031 370.398438 394.464844 C 371.984375 385.359375 393.460938 347.671875 398.113281 343.121094 C 405.683594 335.65625 414.066406 338.777344 417.800781 348.644531 C 419.386719 353.042969 421.996094 359.433594 422.351562 364.34375 C 432.9375 378.046875 415.910156 387.507812 424.5 396.507812 C 427.261719 399.527344 433.296875 402.390625 434.933594 411.492188 C 442.398438 452.554688 461.214844 410.519531 485.8125 427.445312 C 489.800781 430.207031 492.921875 433.941406 495.222656 438.492188 C 506.214844 432.96875 519.664062 426.730469 535.875 419.671875 C 534.800781 415.328125 533.371094 409.804688 533.625 405.609375 C 524.011719 389.554688 542.625 384.03125 534.800781 373.34375 C 532.296875 370.121094 526.773438 366.492188 526.003906 357.03125 C 522.9375 315.609375 499.515625 354.015625 477.066406 333.96875 C 459.785156 318.527344 464.234375 280.941406 483.5625 263.65625 C 495.066406 253.480469 490.261719 251.179688 487.398438 243.867188 C 482.691406 232.359375 494.863281 221.160156 503.351562 229.242188 C 494.351562 196.003906 524.472656 220.703125 520.277344 198.867188 C 519.308594 194.316406 512.609375 179.179688 530.351562 172.121094 C 551.828125 163.683594 554.847656 181.480469 614.214844 178.105469 C 614.472656 177.390625 614.726562 176.671875 614.933594 175.957031 C 642.1875 208.328125 659.113281 252.765625 659.214844 301.597656 C 651.699219 307.683594 653.847656 299.195312 651.085938 296.535156 C 649.140625 294.902344 646.125 296.894531 645.410156 299.554688 C 644.027344 304.972656 648.683594 311.417969 645.203125 315.96875 C 642.441406 319.703125 635.488281 318.371094 633.800781 307.582031 C 632.933594 302.214844 633.289062 296.433594 631.5 291.371094 C 629.710938 286.359375 624.441406 282.269531 620.351562 284.929688 C 617.691406 286.617188 617.589844 287.894531 603.425781 315.40625 C 604.652344 315.507812 605.933594 315.507812 607.3125 315.507812 C 609.664062 334.121094 593.351562 346.804688 590.386719 364.34375 C 586.5 386.691406 592.996094 379.941406 577.039062 402.285156 C 583.125 399.730469 589.621094 397.121094 596.472656 394.359375 C 608.128906 387.046875 621.785156 383.316406 637.023438 383.316406 C 645.5625 383.316406 654.410156 384.390625 663.816406 386.691406 C 696.699219 322.207031 692.710938 239.058594 632.933594 178.003906 " fill-opacity="1" fill-rule="nonzero"/><g clip-path="url(#02c3f5fca3)"><path fill="#3ef967" d="M 659.625 404.179688 C 659.472656 405.253906 659.371094 406.328125 659.371094 407.402344 L 659.371094 541.121094 C 554.847656 555.847656 513.9375 599.160156 430.996094 552.730469 C 422.609375 547.921875 374.746094 518.671875 349.890625 503.535156 C 341.148438 498.269531 336.902344 487.683594 339.714844 477.714844 C 343.296875 464.519531 357.460938 457.308594 370.296875 462.117188 L 457.789062 495.253906 C 455.589844 490.445312 455.746094 486.355469 457.636719 482.671875 C 465.921875 465.953125 604.753906 410.417969 604.753906 410.417969 C 620.964844 399.472656 640.910156 399.628906 659.625 404.179688 " fill-opacity="1" fill-rule="nonzero"/></g><path fill="#3ef967" d="M 672.460938 121.597656 C 667.652344 134.535156 652.773438 140.316406 640.398438 134.28125 L 556.378906 92.910156 C 558.222656 97.820312 557.710938 101.910156 555.460938 105.492188 C 545.589844 121.242188 402.101562 163.328125 402.101562 163.328125 C 390.441406 169.820312 377.609375 170.894531 364.773438 169.003906 C 365.128906 167.519531 365.234375 165.984375 365.234375 164.402344 L 365.234375 27.507812 C 416.011719 24.03125 473.847656 12.527344 473.847656 12.527344 C 524.472656 0.867188 567.222656 23.519531 588.597656 38.402344 C 596.625 43.820312 641.472656 77.519531 664.636719 94.957031 C 672.921875 101.042969 676.039062 111.984375 672.460938 121.597656 " fill-opacity="1" fill-rule="nonzero"/><g clip-path="url(#5f42e72b28)"><path fill="#3ef967" d="M 755.609375 432.40625 C 753.972656 441.660156 745.226562 447.902344 735.714844 446.265625 C 726.613281 444.628906 720.476562 435.832031 722.011719 426.679688 C 723.546875 417.320312 732.289062 411.132812 741.699219 412.617188 C 751.058594 414.253906 757.246094 423.203125 755.609375 432.40625 Z M 791.097656 398.296875 L 686.472656 398.296875 C 681.460938 398.296875 677.371094 402.390625 677.371094 407.402344 L 677.371094 543.984375 C 677.371094 548.996094 681.460938 553.089844 686.472656 553.089844 L 791.097656 553.089844 C 796.160156 553.089844 800.25 548.996094 800.25 543.984375 L 800.25 407.402344 C 800.25 402.390625 796.160156 398.296875 791.097656 398.296875 " fill-opacity="1" fill-rule="nonzero"/></g><g clip-path="url(#b209b69cb5)"><path fill="#3ef967" d="M 302.539062 145.121094 C 301.003906 154.480469 292.210938 160.667969 282.851562 159.234375 C 273.496094 157.597656 267.308594 148.597656 268.941406 139.445312 C 270.578125 130.191406 279.273438 123.902344 288.835938 125.535156 C 297.886719 127.171875 304.074219 135.96875 302.539062 145.121094 Z M 338.027344 18.714844 L 233.503906 18.714844 C 228.339844 18.714844 224.25 22.804688 224.25 27.867188 L 224.25 164.402344 C 224.25 169.464844 228.339844 173.554688 233.503906 173.554688 L 338.027344 173.554688 C 343.039062 173.554688 347.234375 169.464844 347.234375 164.402344 L 347.234375 27.867188 C 347.234375 22.804688 343.039062 18.714844 338.027344 18.714844 " fill-opacity="1" fill-rule="nonzero"/></g></svg>