<svg xmlns="http://www.w3.org/2000/svg" xmlns:xlink="http://www.w3.org/1999/xlink" width="1366" zoomAndPan="magnify" viewBox="0 0 1024.5 576" height="768" preserveAspectRatio="xMidYMid meet" version="1.0"><defs><clipPath id="975b3dd104"><path d="M 569 0.140625 L 614 0.140625 L 614 45 L 569 45 Z M 569 0.140625 " clip-rule="nonzero"/></clipPath><clipPath id="757e6720ab"><path d="M 466 0.140625 L 512 0.140625 L 512 45 L 466 45 Z M 466 0.140625 " clip-rule="nonzero"/></clipPath><clipPath id="c9c52e69c5"><path d="M 466 532 L 512 532 L 512 575.859375 L 466 575.859375 Z M 466 532 " clip-rule="nonzero"/></clipPath><clipPath id="23d44197ae"><path d="M 569 532 L 614 532 L 614 575.859375 L 569 575.859375 Z M 569 532 " clip-rule="nonzero"/></clipPath><clipPath id="0f09722457"><path d="M 252.003906 214 L 297 214 L 297 260 L 252.003906 260 Z M 252.003906 214 " clip-rule="nonzero"/></clipPath><clipPath id="4f1710b441"><path d="M 252.003906 317 L 297 317 L 297 362 L 252.003906 362 Z M 252.003906 317 " clip-rule="nonzero"/></clipPath><clipPath id="68bdc6571d"><path d="M 602 242 L 772.503906 242 L 772.503906 406 L 602 406 Z M 602 242 " clip-rule="nonzero"/></clipPath></defs><path fill="#12ff46" d="M 667.121094 453.285156 L 413.457031 453.285156 C 392.175781 453.285156 375.289062 436.050781 375.289062 415.105469 L 375.289062 161.363281 C 375.289062 140.078125 392.175781 123.183594 413.457031 123.183594 L 667.121094 123.183594 C 687.386719 123.183594 703.9375 139.0625 705.285156 159 C 700.21875 157.984375 695.152344 157.308594 689.75 157.308594 L 685.019531 157.308594 C 671.171875 157.308594 658.675781 161.363281 647.867188 168.121094 C 643.476562 165.757812 638.410156 164.40625 633.34375 164.40625 L 447.230469 164.40625 C 430.34375 164.40625 416.832031 178.257812 416.832031 195.152344 L 416.832031 381.316406 C 416.832031 398.210938 430.34375 411.726562 447.230469 411.726562 L 619.832031 411.726562 C 628.277344 416.457031 637.734375 418.820312 647.867188 418.820312 L 704.949219 418.820312 C 703.261719 438.078125 687.046875 453.285156 667.121094 453.285156 Z M 667.121094 453.285156 " fill-opacity="1" fill-rule="evenodd"/><g clip-path="url(#975b3dd104)"><path fill="#12ff46" d="M 591.796875 44.121094 C 579.300781 44.121094 569.503906 34.324219 569.503906 22.160156 C 569.503906 9.660156 579.300781 -0.136719 591.796875 -0.136719 C 603.957031 -0.136719 613.75 9.660156 613.75 22.160156 C 613.75 34.324219 603.957031 44.121094 591.796875 44.121094 Z M 591.796875 44.121094 " fill-opacity="1" fill-rule="evenodd"/></g><path fill="#12ff46" d="M 562.410156 136.699219 C 558.695312 136.699219 555.65625 133.660156 555.65625 129.941406 L 555.65625 87.371094 C 555.65625 85.679688 556.332031 83.992188 557.683594 82.640625 L 585.042969 55.949219 L 585.042969 37.367188 C 585.042969 33.648438 588.082031 30.609375 591.796875 30.609375 C 595.511719 30.609375 598.550781 33.648438 598.550781 37.367188 L 598.550781 58.652344 C 598.550781 60.339844 597.539062 62.367188 596.527344 63.382812 L 569.167969 90.410156 L 569.167969 129.941406 C 569.167969 133.660156 566.125 136.699219 562.410156 136.699219 Z M 562.410156 136.699219 " fill-opacity="1" fill-rule="evenodd"/><path fill="#12ff46" d="M 518.164062 136.699219 C 514.449219 136.699219 511.410156 133.660156 511.410156 129.941406 L 511.410156 90.410156 L 484.050781 63.382812 C 482.699219 62.367188 482.023438 60.339844 482.023438 58.652344 L 482.023438 37.367188 C 482.023438 33.648438 485.0625 30.609375 488.777344 30.609375 C 492.492188 30.609375 495.53125 33.648438 495.53125 37.367188 L 495.53125 55.949219 L 522.890625 82.640625 C 524.242188 83.992188 524.917969 85.679688 524.917969 87.371094 L 524.917969 129.941406 C 524.917969 133.660156 521.878906 136.699219 518.164062 136.699219 Z M 518.164062 136.699219 " fill-opacity="1" fill-rule="evenodd"/><g clip-path="url(#757e6720ab)"><path fill="#12ff46" d="M 488.777344 44.121094 C 476.617188 44.121094 466.824219 34.324219 466.824219 22.160156 C 466.824219 9.660156 476.617188 -0.136719 488.777344 -0.136719 C 500.9375 -0.136719 511.070312 9.660156 511.070312 22.160156 C 511.070312 34.324219 500.9375 44.121094 488.777344 44.121094 Z M 488.777344 44.121094 " fill-opacity="1" fill-rule="evenodd"/></g><path fill="#12ff46" d="M 617.46875 136.699219 C 613.75 136.699219 610.710938 133.660156 610.710938 129.941406 L 610.710938 66.085938 C 610.710938 62.367188 613.75 59.328125 617.46875 59.328125 L 653.945312 59.328125 C 657.660156 59.328125 660.703125 62.367188 660.703125 66.085938 C 660.703125 69.800781 657.660156 72.839844 653.945312 72.839844 L 624.222656 72.839844 L 624.222656 129.941406 C 624.222656 133.660156 621.183594 136.699219 617.46875 136.699219 Z M 617.46875 136.699219 " fill-opacity="1" fill-rule="evenodd"/><path fill="#12ff46" d="M 669.144531 88.382812 C 656.984375 88.382812 647.191406 78.246094 647.191406 66.085938 C 647.191406 53.921875 656.984375 43.785156 669.144531 43.785156 C 681.644531 43.785156 691.4375 53.921875 691.4375 66.085938 C 691.4375 78.246094 681.644531 88.382812 669.144531 88.382812 Z M 669.144531 88.382812 " fill-opacity="1" fill-rule="evenodd"/><path fill="#12ff46" d="M 463.109375 136.699219 C 459.390625 136.699219 456.351562 133.660156 456.351562 129.941406 L 456.351562 72.839844 L 426.628906 72.839844 C 422.914062 72.839844 419.875 69.800781 419.875 66.085938 C 419.875 62.367188 422.914062 59.328125 426.628906 59.328125 L 463.109375 59.328125 C 466.824219 59.328125 469.863281 62.367188 469.863281 66.085938 L 469.863281 129.941406 C 469.863281 133.660156 466.824219 136.699219 463.109375 136.699219 Z M 463.109375 136.699219 " fill-opacity="1" fill-rule="evenodd"/><path fill="#12ff46" d="M 411.089844 88.382812 C 398.929688 88.382812 389.136719 78.246094 389.136719 66.085938 C 389.136719 53.921875 398.929688 43.785156 411.089844 43.785156 C 423.589844 43.785156 433.382812 53.921875 433.382812 66.085938 C 433.382812 78.246094 423.589844 88.382812 411.089844 88.382812 Z M 411.089844 88.382812 " fill-opacity="1" fill-rule="evenodd"/><g clip-path="url(#c9c52e69c5)"><path fill="#12ff46" d="M 488.777344 576.605469 C 476.617188 576.605469 466.824219 566.46875 466.824219 554.304688 C 466.824219 542.144531 476.617188 532.007812 488.777344 532.007812 C 500.9375 532.007812 511.070312 542.144531 511.070312 554.304688 C 511.070312 566.46875 500.9375 576.605469 488.777344 576.605469 Z M 488.777344 576.605469 " fill-opacity="1" fill-rule="evenodd"/></g><path fill="#12ff46" d="M 488.777344 545.523438 C 485.0625 545.523438 482.023438 542.480469 482.023438 538.765625 L 482.023438 517.816406 C 482.023438 515.789062 482.699219 514.101562 484.050781 512.75 L 511.410156 486.054688 L 511.410156 446.527344 C 511.410156 442.808594 514.449219 439.769531 518.164062 439.769531 C 521.878906 439.769531 524.917969 442.808594 524.917969 446.527344 L 524.917969 489.097656 C 524.917969 490.785156 524.242188 492.476562 522.890625 493.828125 L 495.53125 520.519531 L 495.53125 538.765625 C 495.53125 542.480469 492.492188 545.523438 488.777344 545.523438 Z M 488.777344 545.523438 " fill-opacity="1" fill-rule="evenodd"/><path fill="#12ff46" d="M 591.796875 545.523438 C 587.742188 545.523438 585.042969 542.480469 585.042969 538.765625 L 585.042969 520.519531 L 557.683594 493.828125 C 556.332031 492.476562 555.65625 490.785156 555.65625 489.097656 L 555.65625 446.527344 C 555.65625 442.808594 558.695312 439.769531 562.410156 439.769531 C 566.125 439.769531 569.167969 442.808594 569.167969 446.527344 L 569.167969 486.054688 L 596.527344 512.75 C 597.539062 514.101562 598.550781 515.789062 598.550781 517.816406 L 598.550781 538.765625 C 598.550781 542.480469 595.511719 545.523438 591.796875 545.523438 Z M 591.796875 545.523438 " fill-opacity="1" fill-rule="evenodd"/><g clip-path="url(#23d44197ae)"><path fill="#12ff46" d="M 591.796875 576.605469 C 579.300781 576.605469 569.503906 566.46875 569.503906 554.304688 C 569.503906 542.144531 579.300781 532.007812 591.796875 532.007812 C 603.957031 532.007812 613.75 542.144531 613.75 554.304688 C 613.75 566.46875 603.957031 576.605469 591.796875 576.605469 Z M 591.796875 576.605469 " fill-opacity="1" fill-rule="evenodd"/></g><path fill="#12ff46" d="M 463.109375 517.140625 L 426.628906 517.140625 C 422.914062 517.140625 419.875 514.101562 419.875 510.382812 C 419.875 506.667969 422.914062 503.625 426.628906 503.625 L 456.351562 503.625 L 456.351562 446.527344 C 456.351562 442.808594 459.390625 439.769531 463.109375 439.769531 C 466.824219 439.769531 469.863281 442.808594 469.863281 446.527344 L 469.863281 510.382812 C 469.863281 514.101562 466.824219 517.140625 463.109375 517.140625 Z M 463.109375 517.140625 " fill-opacity="1" fill-rule="evenodd"/><path fill="#12ff46" d="M 411.089844 532.34375 C 398.929688 532.34375 389.136719 522.546875 389.136719 510.382812 C 389.136719 498.21875 398.929688 488.082031 411.089844 488.082031 C 423.589844 488.082031 433.382812 498.21875 433.382812 510.382812 C 433.382812 522.546875 423.589844 532.34375 411.089844 532.34375 Z M 411.089844 532.34375 " fill-opacity="1" fill-rule="evenodd"/><path fill="#12ff46" d="M 653.945312 517.140625 L 617.46875 517.140625 C 613.75 517.140625 610.710938 514.101562 610.710938 510.382812 L 610.710938 446.527344 C 610.710938 442.808594 613.75 439.769531 617.46875 439.769531 C 621.183594 439.769531 624.222656 442.808594 624.222656 446.527344 L 624.222656 503.625 L 653.945312 503.625 C 657.660156 503.625 660.703125 506.667969 660.703125 510.382812 C 660.703125 514.101562 657.660156 517.140625 653.945312 517.140625 Z M 653.945312 517.140625 " fill-opacity="1" fill-rule="evenodd"/><path fill="#12ff46" d="M 669.144531 532.34375 C 656.984375 532.34375 647.191406 522.546875 647.191406 510.382812 C 647.191406 498.21875 656.984375 488.082031 669.144531 488.082031 C 681.644531 488.082031 691.4375 498.21875 691.4375 510.382812 C 691.4375 522.546875 681.644531 532.34375 669.144531 532.34375 Z M 669.144531 532.34375 " fill-opacity="1" fill-rule="evenodd"/><g clip-path="url(#0f09722457)"><path fill="#12ff46" d="M 274.296875 259.007812 C 262.136719 259.007812 252.003906 248.871094 252.003906 236.707031 C 252.003906 224.546875 262.136719 214.746094 274.296875 214.746094 C 286.453125 214.746094 296.25 224.546875 296.25 236.707031 C 296.25 248.871094 286.453125 259.007812 274.296875 259.007812 Z M 274.296875 259.007812 " fill-opacity="1" fill-rule="evenodd"/></g><path fill="#12ff46" d="M 382.042969 272.859375 L 339.484375 272.859375 C 337.796875 272.859375 336.105469 272.183594 334.753906 270.832031 L 308.070312 243.464844 L 289.496094 243.464844 C 285.78125 243.464844 282.738281 240.425781 282.738281 236.707031 C 282.738281 232.992188 285.78125 229.953125 289.496094 229.953125 L 310.773438 229.953125 C 312.800781 229.953125 314.488281 230.628906 315.503906 231.976562 L 342.523438 259.347656 L 382.042969 259.347656 C 385.757812 259.347656 388.796875 262.386719 388.796875 266.101562 C 388.796875 269.820312 385.757812 272.859375 382.042969 272.859375 Z M 382.042969 272.859375 " fill-opacity="1" fill-rule="evenodd"/><path fill="#12ff46" d="M 310.773438 346.179688 L 289.496094 346.179688 C 285.78125 346.179688 282.738281 343.476562 282.738281 339.421875 C 282.738281 335.703125 285.78125 332.664062 289.496094 332.664062 L 308.070312 332.664062 L 334.753906 305.632812 C 336.105469 304.28125 337.796875 303.605469 339.484375 303.605469 L 382.042969 303.605469 C 385.757812 303.605469 388.796875 306.648438 388.796875 310.363281 C 388.796875 314.082031 385.757812 317.121094 382.042969 317.121094 L 342.523438 317.121094 L 315.503906 344.152344 C 314.488281 345.503906 312.800781 346.179688 310.773438 346.179688 Z M 310.773438 346.179688 " fill-opacity="1" fill-rule="evenodd"/><g clip-path="url(#4f1710b441)"><path fill="#12ff46" d="M 274.296875 361.71875 C 262.136719 361.71875 252.003906 351.921875 252.003906 339.421875 C 252.003906 327.257812 262.136719 317.460938 274.296875 317.460938 C 286.453125 317.460938 296.25 327.257812 296.25 339.421875 C 296.25 351.921875 286.453125 361.71875 274.296875 361.71875 Z M 274.296875 361.71875 " fill-opacity="1" fill-rule="evenodd"/></g><path fill="#12ff46" d="M 382.042969 217.789062 L 318.207031 217.789062 C 314.488281 217.789062 311.449219 214.746094 311.449219 211.03125 L 311.449219 174.539062 C 311.449219 170.824219 314.488281 167.78125 318.207031 167.78125 C 321.921875 167.78125 324.960938 170.824219 324.960938 174.539062 L 324.960938 204.273438 L 382.042969 204.273438 C 385.757812 204.273438 388.796875 207.3125 388.796875 211.03125 C 388.796875 214.746094 385.757812 217.789062 382.042969 217.789062 Z M 382.042969 217.789062 " fill-opacity="1" fill-rule="evenodd"/><path fill="#12ff46" d="M 318.207031 181.296875 C 306.046875 181.296875 295.914062 171.160156 295.914062 159 C 295.914062 146.835938 306.046875 137.035156 318.207031 137.035156 C 330.363281 137.035156 340.496094 146.835938 340.496094 159 C 340.496094 171.160156 330.363281 181.296875 318.207031 181.296875 Z M 318.207031 181.296875 " fill-opacity="1" fill-rule="evenodd"/><path fill="#12ff46" d="M 318.207031 408.683594 C 314.488281 408.683594 311.449219 405.644531 311.449219 401.925781 L 311.449219 365.4375 C 311.449219 361.71875 314.488281 358.679688 318.207031 358.679688 L 382.042969 358.679688 C 385.757812 358.679688 388.796875 361.71875 388.796875 365.4375 C 388.796875 369.152344 385.757812 372.195312 382.042969 372.195312 L 324.960938 372.195312 L 324.960938 401.925781 C 324.960938 405.644531 321.921875 408.683594 318.207031 408.683594 Z M 318.207031 408.683594 " fill-opacity="1" fill-rule="evenodd"/><path fill="#12ff46" d="M 318.207031 439.429688 C 306.046875 439.429688 295.914062 429.632812 295.914062 417.132812 C 295.914062 404.96875 306.046875 395.167969 318.207031 395.167969 C 330.363281 395.167969 340.496094 404.96875 340.496094 417.132812 C 340.496094 429.632812 330.363281 439.429688 318.207031 439.429688 Z M 318.207031 439.429688 " fill-opacity="1" fill-rule="evenodd"/><g clip-path="url(#68bdc6571d)"><path fill="#12ff46" d="M 726.902344 405.304688 L 647.867188 405.304688 C 622.871094 405.304688 602.605469 385.035156 602.605469 360.03125 L 602.605469 258.332031 C 602.605469 249.546875 609.359375 242.789062 618.144531 242.789062 L 756.628906 242.789062 C 765.410156 242.789062 772.503906 249.546875 772.503906 258.332031 L 772.503906 360.03125 C 772.503906 385.035156 751.898438 405.304688 726.902344 405.304688 Z M 699.207031 370.84375 L 675.5625 370.84375 C 671.847656 370.84375 668.808594 367.800781 668.808594 364.085938 L 668.808594 329.285156 C 662.050781 323.878906 658 315.433594 658 306.648438 C 658 290.429688 671.171875 277.253906 687.386719 277.253906 C 703.597656 277.253906 716.769531 290.429688 716.769531 306.648438 C 716.769531 315.433594 712.71875 323.878906 705.960938 329.285156 L 705.960938 364.085938 C 705.960938 367.800781 702.921875 370.84375 699.207031 370.84375 Z M 682.320312 357.328125 L 692.453125 357.328125 L 692.453125 325.90625 C 692.453125 323.542969 693.804688 321.515625 695.828125 320.164062 C 700.558594 317.121094 703.261719 312.054688 703.261719 306.648438 C 703.261719 297.863281 696.167969 290.769531 687.386719 290.769531 C 678.601562 290.769531 671.511719 297.863281 671.511719 306.648438 C 671.511719 312.054688 674.550781 317.121094 679.277344 320.164062 C 681.304688 321.515625 682.320312 323.542969 682.320312 325.90625 Z M 682.320312 357.328125 " fill-opacity="1" fill-rule="evenodd"/></g><path fill="#12ff46" d="M 739.402344 256.304688 L 635.367188 256.304688 C 631.652344 256.304688 628.613281 253.265625 628.613281 249.546875 L 628.613281 227.25 C 628.613281 196.164062 653.945312 170.824219 685.019531 170.824219 L 689.75 170.824219 C 720.824219 170.824219 746.15625 196.164062 746.15625 227.25 L 746.15625 249.546875 C 746.15625 253.265625 743.117188 256.304688 739.402344 256.304688 Z M 642.125 242.789062 L 732.644531 242.789062 L 732.644531 227.25 C 732.644531 203.597656 713.394531 184.339844 689.75 184.339844 L 685.019531 184.339844 C 661.378906 184.339844 642.125 203.597656 642.125 227.25 Z M 642.125 242.789062 " fill-opacity="1" fill-rule="evenodd"/></svg>