<svg xmlns="http://www.w3.org/2000/svg" xmlns:xlink="http://www.w3.org/1999/xlink" width="1366" zoomAndPan="magnify" viewBox="0 0 1024.5 576" height="768" preserveAspectRatio="xMidYMid meet" version="1.0"><defs><clipPath id="3e18fb7480"><path d="M 208.21875 0.140625 L 816.46875 0.140625 L 816.46875 575.859375 L 208.21875 575.859375 Z M 208.21875 0.140625 " clip-rule="nonzero"/></clipPath></defs><g clip-path="url(#3e18fb7480)"><path fill="#12ff46" d="M 769.4375 437.511719 C 740.421875 408.515625 700.371094 390.503906 656.332031 390.503906 L 600.949219 390.503906 C 600.964844 389.777344 601.011719 389.046875 601.011719 388.316406 L 601.011719 361.75 C 603.414062 359.667969 605.742188 357.496094 607.992188 355.246094 C 614.835938 348.40625 620.960938 340.824219 626.238281 332.660156 C 653.960938 329.484375 675.613281 319.820312 681.148438 294.089844 C 689.953125 292.355469 697.828125 288.011719 703.941406 281.902344 C 711.988281 273.863281 716.988281 262.75 716.988281 250.546875 L 716.988281 201.351562 C 716.988281 189.132812 711.988281 178.039062 703.941406 170 L 703.320312 169.421875 C 698.011719 164.316406 691.457031 160.53125 684.191406 158.523438 C 684.207031 158.34375 684.21875 158.175781 684.21875 157.992188 C 684.21875 114.511719 665.289062 75.027344 634.785156 46.425781 C 604.417969 17.960938 562.617188 0.300781 516.679688 0.300781 L 508.027344 0.300781 C 462.085938 0.300781 420.285156 17.960938 389.933594 46.425781 C 359.429688 75.027344 340.5 114.511719 340.5 157.992188 C 340.5 158.175781 340.511719 158.34375 340.527344 158.523438 C 333 160.589844 326.234375 164.589844 320.820312 169.984375 L 320.777344 170.03125 C 312.730469 178.085938 307.730469 189.179688 307.730469 201.351562 L 307.730469 250.546875 C 307.730469 262.433594 312.488281 273.269531 320.199219 281.277344 L 320.777344 281.902344 C 328.820312 289.941406 339.921875 294.941406 352.144531 294.941406 C 362.425781 294.941406 371.898438 291.398438 379.441406 285.503906 C 384.703125 312.417969 397.992188 336.550781 416.710938 355.261719 C 420.226562 358.773438 423.917969 362.070312 427.796875 365.183594 L 427.796875 388.347656 C 427.796875 389.078125 427.828125 389.804688 427.859375 390.535156 L 368.371094 390.535156 C 324.320312 390.535156 284.28125 408.542969 255.265625 437.542969 C 226.238281 466.507812 208.21875 506.539062 208.21875 550.554688 L 208.21875 566.023438 C 208.21875 571.4375 212.613281 575.828125 218.027344 575.828125 L 806.660156 575.828125 C 812.074219 575.828125 816.46875 571.4375 816.46875 566.023438 L 816.46875 550.554688 C 816.46875 506.539062 798.449219 466.507812 769.4375 437.511719 Z M 637.839844 310.304688 C 641.066406 302.371094 643.574219 294.058594 645.246094 285.472656 C 649.761719 289.011719 654.992188 291.703125 660.664062 293.285156 C 656.941406 301.933594 648.773438 307.191406 637.839844 310.304688 Z M 690.042969 183.84375 C 694.546875 188.34375 697.34375 194.527344 697.34375 201.335938 L 697.34375 250.53125 C 697.34375 257.339844 694.546875 263.542969 690.042969 268.023438 C 685.542969 272.523438 679.339844 275.320312 672.527344 275.320312 C 665.714844 275.320312 659.511719 272.523438 655.023438 268.023438 L 654.980469 268.023438 C 650.507812 263.558594 647.726562 257.355469 647.726562 250.53125 L 647.726562 201.335938 C 647.726562 194.5 650.507812 188.3125 654.980469 183.84375 L 655.023438 183.796875 C 659.496094 179.332031 665.699219 176.550781 672.542969 176.550781 C 679.15625 176.550781 685.195312 179.148438 689.617188 183.375 Z M 403.332031 60.664062 C 430.15625 35.511719 467.195312 19.90625 508.011719 19.90625 L 516.664062 19.90625 C 557.460938 19.90625 594.519531 35.511719 621.34375 60.664062 C 647.9375 85.605469 664.484375 119.953125 664.558594 157.6875 C 658.171875 158.859375 652.257812 161.414062 647.117188 165.03125 C 644.074219 132.871094 629.660156 103.886719 607.960938 82.199219 C 583.433594 57.6875 549.570312 42.457031 512.328125 42.457031 C 475.089844 42.457031 441.226562 57.6875 416.695312 82.199219 C 394.996094 103.886719 380.582031 132.871094 377.539062 165.03125 C 372.402344 161.414062 366.484375 158.859375 360.097656 157.6875 C 360.207031 119.953125 376.734375 85.605469 403.332031 60.664062 Z M 627.226562 163.691406 C 604.113281 163.601562 581.914062 160.636719 560.667969 154.832031 C 536.339844 148.175781 513.121094 137.71875 491.039062 123.476562 C 487.253906 121.046875 482.128906 121.488281 478.828125 124.816406 C 469.050781 134.601562 456.507812 142.765625 441.179688 149.285156 C 428.558594 154.648438 414.035156 158.875 397.6875 162.003906 C 401.21875 136.457031 413.136719 113.492188 430.59375 96.046875 C 451.578125 75.074219 480.53125 62.046875 512.359375 62.046875 C 544.1875 62.046875 573.140625 75.074219 594.125 96.046875 C 611.945312 113.875 624.003906 137.476562 627.226562 163.691406 Z M 352.144531 275.320312 C 345.335938 275.320312 339.128906 272.523438 334.644531 268.023438 L 334.1875 267.601562 C 329.960938 263.160156 327.359375 257.144531 327.359375 250.53125 L 327.359375 201.335938 C 327.359375 194.5 330.144531 188.3125 334.613281 183.84375 L 334.660156 183.796875 C 339.128906 179.332031 345.335938 176.550781 352.175781 176.550781 C 359.019531 176.550781 365.207031 179.332031 369.679688 183.796875 L 369.679688 183.84375 C 374.179688 188.34375 376.976562 194.527344 376.976562 201.335938 L 376.976562 250.53125 C 376.976562 257.339844 374.179688 263.542969 369.679688 268.023438 C 365.164062 272.523438 358.957031 275.320312 352.144531 275.320312 Z M 396.5625 259.667969 L 396.5625 182.128906 C 416.226562 178.675781 433.652344 173.738281 448.8125 167.277344 C 463.652344 160.972656 476.351562 153.191406 486.917969 143.980469 C 508.679688 157.203125 531.550781 167.113281 555.53125 173.660156 C 578.765625 180.015625 602.957031 183.207031 628.125 183.222656 L 628.125 259.652344 C 628.125 279.242188 623.167969 297.722656 614.484375 313.9375 C 599.414062 314.941406 582.308594 314.316406 565.476562 313.679688 L 562.039062 313.558594 C 560.503906 308.527344 557.796875 304.015625 554.238281 300.367188 C 548.472656 294.46875 540.507812 290.808594 531.746094 290.808594 C 522.988281 290.808594 515.019531 294.453125 509.257812 300.367188 C 503.570312 306.1875 500.042969 314.210938 500.042969 323.042969 C 500.042969 331.871094 503.570312 339.894531 509.257812 345.71875 C 515.019531 351.613281 522.988281 355.277344 531.746094 355.277344 C 540.507812 355.277344 548.472656 351.628906 554.238281 345.71875 C 557.660156 342.207031 560.273438 337.90625 561.839844 333.117188 L 564.789062 333.222656 C 576.894531 333.679688 589.105469 334.136719 600.84375 334.042969 C 598.699219 336.582031 596.464844 339.046875 594.125 341.402344 C 573.140625 362.375 544.1875 375.398438 512.359375 375.398438 C 493.03125 375.398438 474.785156 370.582031 458.726562 362.117188 C 453.40625 359.226562 448.339844 355.914062 443.597656 352.238281 C 442.957031 351.75 442.273438 351.355469 441.574219 351.035156 C 437.726562 348.042969 434.046875 344.835938 430.59375 341.402344 C 409.59375 320.414062 396.5625 291.476562 396.5625 259.667969 Z M 543.820312 323.042969 C 543.820312 326.597656 542.4375 329.804688 540.203125 332.085938 C 538.042969 334.304688 535.03125 335.671875 531.71875 335.671875 C 528.402344 335.671875 525.390625 334.304688 523.230469 332.085938 C 520.996094 329.804688 519.613281 326.597656 519.613281 323.042969 C 519.613281 319.484375 520.996094 316.277344 523.230469 314 C 525.390625 311.78125 528.402344 310.414062 531.71875 310.414062 C 535.03125 310.414062 538.042969 311.78125 540.203125 314 C 542.4375 316.277344 543.820312 319.484375 543.820312 323.042969 Z M 456.886719 383.042969 C 460.871094 384.882812 464.945312 386.554688 469.128906 387.980469 C 481.597656 392.269531 494.917969 394.667969 508.726562 394.925781 C 508.863281 394.925781 509 394.925781 509.136719 394.941406 C 509.789062 394.957031 510.429688 394.988281 511.082031 394.988281 L 517.679688 394.988281 C 532.324219 394.988281 546.453125 392.527344 559.652344 387.996094 C 567.207031 385.398438 574.476562 382.101562 581.367188 378.195312 L 581.367188 388.316406 C 581.367188 406.160156 574.050781 422.375 562.28125 434.136719 C 550.511719 445.902344 534.273438 453.210938 516.433594 453.210938 L 512.34375 453.210938 C 494.492188 453.210938 478.265625 445.902344 466.496094 434.136719 C 454.726562 422.375 447.414062 406.144531 447.414062 388.316406 L 447.414062 378.300781 C 450.5 379.988281 453.664062 381.582031 456.886719 383.042969 Z M 227.835938 550.554688 C 227.835938 511.9375 243.648438 476.828125 269.121094 451.355469 C 294.589844 425.902344 329.730469 410.09375 368.371094 410.09375 L 430.6875 410.09375 C 434.59375 424.625 442.273438 437.632812 452.628906 447.984375 C 465.753906 461.097656 483.179688 469.945312 502.535156 472.207031 L 502.535156 556.207031 L 227.835938 556.207031 Z M 796.851562 556.222656 L 522.152344 556.222656 L 522.152344 472.605469 C 543.152344 471.191406 562.113281 462.054688 576.164062 448 C 586.519531 437.648438 594.199219 424.625 598.109375 410.109375 L 656.316406 410.109375 C 694.957031 410.109375 730.082031 425.917969 755.554688 451.371094 C 781.023438 476.828125 796.839844 511.949219 796.839844 550.570312 L 796.839844 556.222656 Z M 796.851562 556.222656 " fill-opacity="1" fill-rule="nonzero"/></g></svg>